<svg xmlns="http://www.w3.org/2000/svg" viewBox="0 0 473.38 127.97"><defs><style>.cls-1{fill:#606060;}.cls-2{fill:#e47a2e;}.cls-3{fill:#099;}.cls-4{fill:#fab448;}.cls-5{fill:#e4792e;}.cls-6{fill:#84cec2;}.cls-7{fill:#0ba4aa;}.cls-8{fill:#f9b447;}.cls-9{fill:#84cec3;}</style></defs><g id="Layer_2" data-name="Layer 2"><g id="Layer_1-2" data-name="Layer 1"><path class="cls-1" d="M143,77.74a27,27,0,0,0-15,5v-15H118v60.06h10c.94-12.84-5.53-40.1,15-40,20.53-.09,14.08,27.24,15,40h10c.3-20.86,3.63-48.3-25-50.05"/><path class="cls-1" d="M198.1,127.79c-32.8.08-32.8-50.14,0-50.05,33.17.42,32.64,49.58,0,50.05m0-40c-19.71-.17-19.72,30.2,0,30,19.92.09,19.38-30.08,0-30"/><path class="cls-1" d="M268.17,77.74c-.95,12.83,5.52,40.1-15,40s-14.08-27.25-15-40h-10c-.24,20.74-3.84,48.87,25,50.05,28.86-1.18,25.26-29.34,25-50.05Z"/><path class="cls-1" d="M298.2,87.75h35v-10h-35a14.74,14.74,0,0,0-15,15c.06,18.94,22.57,14.69,35,15,4.31-.1,6.72,5.56,3.51,8.5-.1,3-36.61.93-38.54,1.51v10h35c19.71.16,19.72-30.2,0-30h-20c-6.58.36-6.58-10.36,0-10"/><path class="cls-1" d="M363.27,107.77h24.52c6.34-35.77-48.64-41.31-49.55-5-.33,17.55,17.82,29.5,34,23.53l-3.51-9.51c-9.61,3.77-20.84-3.36-20.52-14-.72-16.55,24.3-20.63,29-5h-14Z"/><path class="cls-1" d="M433.34,77.73c-44.32,3.39-23,68.82,15,45.05v5h10c.3-20.86,3.63-48.3-25-50.06m0,40.05c-19.72.16-19.71-30.2,0-30,19.92-.1,19.38,30.07,0,30"/><rect class="cls-1" x="463.37" y="77.73" width="10.01" height="50.05"/><path class="cls-2" d="M468.37,57.72c6.5-.11,6.51,10.1,0,10-6.5.1-6.5-10.11,0-10"/><path class="cls-3" d="M398.3,117.78c6.5-.11,6.5,10.11,0,10-6.49.09-6.49-10.11,0-10"/><path class="cls-1" d="M141.62,56.14c-32.8.08-32.8-50.14,0-50,33.17.43,32.64,49.58,0,50.05m0-40c-19.72-.17-19.72,30.2,0,30,19.92.1,19.38-30.07,0-30"/><path class="cls-1" d="M196.67,6.09c-33.87.37-23.58,43.58-25,65.07h10v-20c37.45,23.67,59.74-40.9,15-45m0,40c-19.71.17-19.71-30.2,0-30,19.92-.09,19.38,30.08,0,30"/><path class="cls-1" d="M251.73,36.12h24.52c6.34-35.76-48.64-41.3-49.54-5-.34,17.55,17.81,29.5,34,23.52l-3.5-9.51c-9.62,3.77-20.85-3.35-20.53-14-.72-16.56,24.3-20.63,29-5h-14Z"/><path class="cls-1" d="M306.79,6.09c-28.88,1.18-25.26,29.33-25,50.05h10c1-12.83-5.52-40.1,15-40s14.07,27.25,15,40h10c.37-20.82,3.52-48.74-25-50"/><path class="cls-4" d="M101.39,109l-8.7,4.06-9.12-4.26c-3.53-1.53-2.22-7.14,1.56-7a3.62,3.62,0,0,1,1.56.35Z"/><path class="cls-5" d="M86.69,127.44l20-9.31c4.35-1.94,1.19-8.73-3.1-6.65l-20,9.31c-4.34,1.94-1.19,8.73,3.11,6.65"/><path class="cls-6" d="M26.92,103.93a3.65,3.65,0,0,0-4.87-1.77L7.35,109l8.69,4c2.65-1.93,13.55-3.9,10.88-9.13"/><path class="cls-7" d="M22.05,127.43l-20-9.31c-4.34-1.94-1.19-8.73,3.1-6.65l20,9.31c4.34,1.94,1.19,8.73-3.1,6.65"/><path class="cls-8" d="M74,96c-22.24,21.2-15.43,24.5-38.26,1.15A51.11,51.11,0,0,0,38.5,82.7,57.3,57.3,0,0,0,74,96"/><path class="cls-9" d="M33.83,80.36A46,46,0,0,1,32,93.4C21.43,83.28,9.36,71.89,7.31,57a52.53,52.53,0,0,0,21.62,2.41,47.31,47.31,0,0,1,4.9,20.92"/><path class="cls-3" d="M102.16,48c.51,17.78-10.26,31.42-23.28,43.1a52.63,52.63,0,0,1-40.51-15,50.84,50.84,0,0,0-4.56-17.48,45.36,45.36,0,0,0,4.53-1.11C53,80.34,85.73,55.71,67.89,35.34a51.78,51.78,0,0,0,8-30C91.76,13,102.54,31,102.16,48"/><path class="cls-2" d="M71.19,7.61a46.94,46.94,0,0,1-7,24.7C50.48,23,31.31,37.37,36.44,53.22A47.5,47.5,0,0,1,6.61,51.74C2.84,18.23,39.68-9.62,71,3.17c.13,1.46.2,2.94.2,4.44"/></g></g></svg>